<svg
  width="100"
  height="100"
  viewBox="0 0 100 100"
  fill="none"
  xmlns="http://www.w3.org/2000/svg"
>
  <path
    d="M59.6167 25.4881C58.3211 25.4881 57.1036 24.9868 56.1921 24.0688C55.2807 23.1509 54.7729 21.9334 54.7729 20.6443C54.7729 19.3552 55.2742 18.1312 56.1921 17.2198C57.1101 16.3083 58.3276 15.8005 59.6167 15.8005C60.9057 15.8005 62.1298 16.3018 63.0412 17.2198C63.9592 18.1378 64.4605 19.3552 64.4605 20.6443C64.4605 21.9334 63.9591 23.1574 63.0412 24.0688C62.1232 24.9803 60.9123 25.4881 59.6167 25.4881ZM59.6167 18.919C59.1544 18.919 58.7247 19.1013 58.3992 19.4204C58.0737 19.7459 57.8979 20.1756 57.8979 20.6378C57.8979 21.1 58.0802 21.5297 58.3992 21.8553C58.7247 22.1808 59.1544 22.3566 59.6167 22.3566C60.0789 22.3566 60.5086 22.1743 60.8341 21.8553C61.1596 21.5297 61.3354 21.1 61.3354 20.6378C61.3354 20.1756 61.1531 19.7459 60.8341 19.4204C60.5086 19.0948 60.0724 18.919 59.6167 18.919Z"
    fill="#FC5B3E"
  />
  <path
    d="M30.9905 30.9833C29.747 30.9833 28.51 30.5081 27.566 29.5641C26.648 28.6461 26.1467 27.4286 26.1467 26.1396C26.1467 24.8505 26.648 23.6265 27.566 22.715C29.454 20.827 32.5269 20.827 34.4214 22.715C35.3394 23.633 35.8407 24.8505 35.8407 26.1396C35.8407 27.4286 35.3394 28.6526 34.4214 29.5641C33.4709 30.5081 32.2339 30.9833 30.9905 30.9833V30.9833ZM30.9905 24.4145C30.5478 24.4145 30.1116 24.5838 29.773 24.9158C29.4475 25.2414 29.2717 25.6711 29.2717 26.1333C29.2717 26.5955 29.454 27.0252 29.773 27.3507C30.4436 28.0213 31.5374 28.0213 32.208 27.3507C32.5336 27.0252 32.7093 26.5955 32.7093 26.1333C32.7093 25.6711 32.5271 25.2414 32.208 24.9158C31.8695 24.5838 31.4333 24.4145 30.9906 24.4145H30.9905Z"
    fill="#FC5B3E"
  />
  <path
    d="M81.4119 61.3476C80.1163 61.3476 78.8988 60.8463 77.9874 59.9283C77.076 59.0104 76.5681 57.7929 76.5681 56.5038C76.5681 55.2082 77.0694 53.9907 77.9874 53.0793C78.9053 52.1679 80.1228 51.66 81.4119 51.66C82.701 51.66 83.925 52.1613 84.8364 53.0793C85.7479 53.9973 86.2557 55.2147 86.2557 56.5038C86.2557 57.7994 85.7544 59.0169 84.8364 59.9283C83.9184 60.8398 82.7075 61.3476 81.4119 61.3476ZM81.4119 54.7786C80.9497 54.7786 80.52 54.9609 80.1945 55.2799C79.8689 55.5989 79.6931 56.0351 79.6931 56.4973C79.6931 56.9596 79.8754 57.3892 80.1945 57.7148C80.5135 58.0403 80.9497 58.2161 81.4119 58.2161C81.8741 58.2161 82.3038 58.0338 82.6294 57.7148C82.9549 57.3958 83.1307 56.9596 83.1307 56.4973C83.1307 56.0351 82.9484 55.6054 82.6294 55.2799C82.3104 54.9543 81.8676 54.7786 81.4119 54.7786Z"
    fill="#FC5B3E"
  />
  <path
    d="M59.6167 72.0643C58.3211 72.0643 57.1036 71.563 56.1921 70.645C54.3041 68.757 54.3041 65.6841 56.1921 63.7895C57.1101 62.8716 58.3276 62.3703 59.6167 62.3703C60.9057 62.3703 62.1298 62.8716 63.0412 63.7895C64.9292 65.6776 64.9292 68.7505 63.0412 70.645C62.1297 71.5565 60.9123 72.0643 59.6167 72.0643ZM59.6167 65.4952C59.1544 65.4952 58.7247 65.6775 58.3992 65.9965C57.7286 66.6671 57.7286 67.7609 58.3992 68.4315C58.7247 68.7571 59.1544 68.9329 59.6167 68.9329C60.0789 68.9329 60.5086 68.7506 60.8341 68.4315C61.5047 67.761 61.5047 66.6672 60.8341 65.9965C60.5086 65.6775 60.0724 65.4952 59.6167 65.4952Z"
    fill="#FC5B3E"
  />
  <path
    d="M39.3095 84.5452C38.066 84.5452 36.829 84.07 35.885 83.126C34.967 82.208 34.4657 80.9905 34.4657 79.7014C34.4657 78.4059 34.967 77.1883 35.885 76.2769C37.773 74.3889 40.8459 74.3889 42.7405 76.2769C43.6584 77.1949 44.1597 78.4123 44.1597 79.7014C44.1597 80.997 43.6584 82.2145 42.7405 83.126C41.7965 84.0765 40.553 84.5452 39.3095 84.5452ZM39.3095 77.9829C38.8668 77.9829 38.4306 78.1521 38.0921 78.4842C37.7665 78.8097 37.5908 79.2394 37.5908 79.7016C37.5908 80.1638 37.773 80.5935 38.0921 80.9191C38.7626 81.5896 39.8564 81.5896 40.5271 80.9191C40.8526 80.5935 41.0284 80.1638 41.0284 79.7016C41.0284 79.2394 40.8461 78.8097 40.5271 78.4842C40.195 78.1521 39.7523 77.9829 39.3096 77.9829H39.3095Z"
    fill="#FC5B3E"
  />
  <path
    d="M57.5714 37.1214C56.7642 37.1214 56.0806 36.5029 56.0154 35.6826L55.7225 31.9067C55.6574 31.0473 56.2954 30.2921 57.1613 30.227C58.0207 30.1619 58.7758 30.7999 58.841 31.6658L59.1339 35.4417C59.199 36.3011 58.561 37.0563 57.6951 37.1214H57.5714H57.5714Z"
    fill="#FC5B3E"
  />
  <path
    d="M27.6572 77.7143C27.1168 77.7143 26.5894 77.4343 26.303 76.9331L24.4085 73.6519C23.9788 72.9032 24.2327 71.9461 24.9814 71.5164C25.7301 71.0867 26.6871 71.3407 27.1168 72.0893L29.0113 75.3705C29.441 76.1192 29.1871 77.0763 28.4384 77.506C28.191 77.6492 27.9241 77.7143 27.6572 77.7143H27.6572Z"
    fill="#FC5B3E"
  />
  <path
    d="M17.6357 62.4476C16.8284 62.4476 16.1448 61.8226 16.0797 61.0088L15.7867 57.2328C15.7216 56.3735 16.3596 55.6183 17.2255 55.5532C18.0849 55.488 18.8401 56.1261 18.9052 56.992L19.1982 60.7679C19.2633 61.6273 18.6253 62.3825 17.7594 62.4476H17.6357H17.6357Z"
    fill="#FC5B3E"
  />
  <path
    d="M67.6952 33.3405C67.5976 33.3405 67.4934 33.334 67.3957 33.3144L63.6784 32.5918C62.832 32.429 62.2786 31.6087 62.4414 30.7558C62.6042 29.9095 63.4245 29.3561 64.2773 29.5189L67.9947 30.2415C68.8411 30.4043 69.3944 31.2246 69.2317 32.0775C69.0819 32.8261 68.4309 33.3405 67.6952 33.3405V33.3405Z"
    fill="#FC5B3E"
  />
  <path
    d="M34.6286 70.2024C34.5309 70.2024 34.4267 70.1959 34.3291 70.1763L30.6117 69.4537C29.7654 69.2909 29.212 68.4706 29.3747 67.6177C29.5375 66.7714 30.3578 66.218 31.2107 66.3808L34.9281 67.1034C35.7744 67.2662 36.3278 68.0865 36.165 68.9393C36.0153 69.688 35.3577 70.2024 34.6286 70.2024V70.2024Z"
    fill="#FC5B3E"
  />
  <path
    d="M75.9572 48.5548C75.8595 48.5548 75.7553 48.5482 75.6577 48.5287L71.9403 47.8061C71.0939 47.6433 70.5406 46.823 70.7033 45.9701C70.8661 45.1238 71.6864 44.5704 72.5393 44.7331L76.2566 45.4558C77.103 45.6186 77.6564 46.4389 77.4936 47.2917C77.3439 48.0339 76.6928 48.5548 75.9572 48.5548V48.5548Z"
    fill="#FC5B3E"
  />
  <path
    d="M58.3333 81.5428C57.7539 81.5428 57.194 81.2173 56.9271 80.6574L55.28 77.246C54.9024 76.4712 55.2279 75.5337 56.0091 75.1627C56.7839 74.7851 57.7214 75.1106 58.0925 75.8918L59.7396 79.3032C60.1172 80.078 59.7917 81.0155 59.0104 81.3866C58.7891 81.4907 58.5612 81.5428 58.3333 81.5428V81.5428Z"
    fill="#FC5B3E"
  />
  <path
    d="M68.5167 54.7333C68.1195 54.7333 67.7159 54.5836 67.4099 54.2776L64.7342 51.6019C64.1222 50.9899 64.1222 50.0003 64.7342 49.3948C65.3462 48.7829 66.3358 48.7829 66.9412 49.3948L69.6169 52.0706C70.2289 52.6825 70.2289 53.6721 69.6169 54.2776C69.3175 54.5836 68.9138 54.7333 68.5167 54.7333Z"
    fill="#FC5B3E"
  />
  <path
    d="M42.9286 35.6C42.8309 35.6 42.7268 35.5935 42.6291 35.574L38.9117 34.8513C38.0654 34.6885 37.512 33.8682 37.6748 33.0154C37.8375 32.169 38.6578 31.6156 39.5107 31.7784L43.2281 32.5011C44.0744 32.6638 44.6278 33.4841 44.4651 34.337C44.3153 35.0857 43.6578 35.6 42.9286 35.6V35.6Z"
    fill="#FC5B3E"
  />
  <path
    d="M41.3357 26.5762C41.2446 26.5762 41.1469 26.5697 41.0557 26.5501C40.2094 26.3939 39.643 25.5801 39.7992 24.7337L40.4763 21.0097C40.6326 20.1633 41.4464 19.5969 42.2927 19.7532C43.1391 19.9095 43.7055 20.7232 43.5492 21.5696L42.8722 25.2936C42.7354 26.0489 42.0779 26.5762 41.3357 26.5762V26.5762Z"
    fill="#FC5B3E"
  />
  <path
    d="M69.2572 26.6024C68.4499 26.6024 67.7663 25.9839 67.7012 25.1636L67.4082 21.3876C67.3431 20.5282 67.9811 19.773 68.847 19.7079C69.7064 19.6428 70.4616 20.2808 70.5267 21.1467L70.8197 24.9227C70.8848 25.7821 70.2468 26.5373 69.3809 26.6024H69.2572H69.2572Z"
    fill="#FC5B3E"
  />
  <path
    d="M82.7548 46.3286C81.9475 46.3286 81.2639 45.7101 81.1988 44.8898L80.9058 41.1138C80.8407 40.2544 81.4787 39.4992 82.3446 39.4341C83.204 39.369 83.9592 40.007 84.0243 40.8729L84.3173 44.6489C84.3824 45.5083 83.7444 46.2634 82.8785 46.3286H82.7548H82.7548Z"
    fill="#FC5B3E"
  />
  <path
    d="M65.9833 82.3238C65.1761 82.3238 64.4925 81.6988 64.4273 80.885L64.1344 77.1091C64.0693 76.2497 64.7073 75.4945 65.5732 75.4294C66.4326 75.3643 67.1877 76.0023 67.2529 76.8682L67.5458 80.6441C67.6109 81.5035 66.9729 82.2587 66.107 82.3238H65.9833H65.9833Z"
    fill="#FC5B3E"
  />
  <path
    d="M73.3143 73.6976C73.1776 73.6976 73.0408 73.6781 72.9041 73.639L69.2517 72.6429C68.4184 72.4151 67.9301 71.5557 68.158 70.7224C68.3858 69.889 69.2452 69.4007 70.0785 69.6286L73.7309 70.6247C74.5642 70.8526 75.0525 71.7119 74.8247 72.5453C74.6294 73.2419 73.9978 73.6976 73.3142 73.6976L73.3143 73.6976Z"
    fill="#FC5B3E"
  />
  <path
    d="M41.8167 69.6476C41.0094 69.6476 40.3258 69.0226 40.2607 68.2088L39.9677 64.4329C39.9026 63.5735 40.5406 62.8183 41.4065 62.7532C42.2659 62.6881 43.0211 63.3261 43.0862 64.192L43.3792 67.9679C43.4443 68.8273 42.8063 69.5825 41.9404 69.6476H41.8167H41.8167Z"
    fill="#FC5B3E"
  />
  <path
    d="M50 100C43.2488 100 36.7057 98.6784 30.5405 96.0676C24.5833 93.5481 19.2383 89.9414 14.6486 85.3514C10.0588 80.7617 6.45191 75.41 3.93238 69.4595C1.32167 63.2941 0 56.7448 0 50C0 43.2552 1.32162 36.7057 3.93238 30.5405C6.45191 24.5833 10.0586 19.2383 14.6486 14.6486C19.2383 10.0588 24.5836 6.44548 30.5405 3.93238C36.7059 1.32167 43.2488 0 50 0C56.7512 0 63.2943 1.32162 69.4595 3.93238C75.4167 6.4519 80.7617 10.0586 85.3514 14.6486C89.9412 19.2383 93.5481 24.59 96.0676 30.5405C98.6783 36.706 100 43.2552 100 50C100 56.7448 98.6784 63.2943 96.0676 69.4595C93.5481 75.4167 89.9414 80.7617 85.3514 85.3514C80.7617 89.9412 75.41 93.5481 69.4595 96.0676C63.2941 98.6783 56.7512 100 50 100V100ZM50 3.12381C24.1548 3.12381 3.12381 24.1524 3.12381 50C3.12381 75.8476 24.1524 96.8762 50 96.8762C75.8476 96.8762 96.8762 75.8476 96.8762 50C96.8762 24.1524 75.8476 3.12381 50 3.12381Z"
    fill="#FC5B3E"
  />
  <path
    d="M50 92.8381C44.2122 92.8381 38.6067 91.7053 33.3269 89.4721C28.2293 87.3172 23.646 84.2248 19.7072 80.2859C15.7683 76.3471 12.6824 71.7702 10.5274 66.6662C8.29432 61.3929 7.16144 55.7874 7.16144 49.9995C7.16144 44.2117 8.29425 38.6062 10.5274 33.3264C12.6823 28.2288 15.7748 23.6455 19.7072 19.7067C23.646 15.7679 28.2229 12.6819 33.3269 10.5269C38.6069 8.29383 44.2124 7.16095 50 7.16095C55.7876 7.16095 61.3933 8.29376 66.6731 10.5269C71.7707 12.6819 76.3541 15.7743 80.2929 19.7067C84.2317 23.6455 87.3176 28.2224 89.4791 33.3264C91.7121 38.6064 92.845 44.2119 92.845 49.9995C92.845 55.7871 91.7122 61.3929 89.4791 66.6726C87.3241 71.7702 84.2317 76.3536 80.2929 80.2924C76.3541 84.2312 71.7772 87.3171 66.6731 89.4786C61.3931 91.7051 55.7876 92.8379 50 92.8379V92.8381ZM50 10.2857C44.6355 10.2857 39.4336 11.3339 34.5443 13.4043C29.8176 15.403 25.5664 18.2676 21.9205 21.92C18.2681 25.5657 15.4036 29.8171 13.4048 34.5438C11.3345 39.4331 10.2862 44.635 10.2862 49.9995C10.2862 55.364 11.3344 60.5659 13.4048 65.4552C15.4035 70.1819 18.2681 74.4331 21.9205 78.079C25.5729 81.7314 29.8176 84.596 34.5443 86.5948C39.4336 88.6651 44.6355 89.7133 50 89.7133C55.3645 89.7133 60.5664 88.6652 65.4557 86.5948C70.1824 84.5961 74.4336 81.7314 78.0795 78.079C81.7319 74.4267 84.5964 70.1819 86.5952 65.4552C88.6656 60.5659 89.7138 55.364 89.7138 49.9995C89.7138 44.635 88.6657 39.4331 86.5952 34.5438C84.5966 29.8171 81.7319 25.5659 78.0795 21.92C74.4271 18.2676 70.1824 15.4031 65.4557 13.4043C60.5664 11.334 55.3645 10.2857 50 10.2857V10.2857Z"
    fill="#FC5B3E"
  />
  <path
    d="M50 51.5619C49.1341 51.5619 48.4375 50.8653 48.4375 49.9994V8.72322C48.4375 7.85734 49.1341 7.16072 50 7.16072C50.8659 7.16072 51.5625 7.85734 51.5625 8.72322V49.9994C51.5625 50.8653 50.8659 51.5619 50 51.5619Z"
    fill="#FC5B3E"
  />
  <path
    d="M50 51.5619C49.7331 51.5619 49.4661 51.4968 49.2188 51.3536L13.4711 30.7155C12.7225 30.2858 12.4686 29.3287 12.8982 28.58C13.3279 27.8313 14.285 27.5774 15.0337 28.0071L50.7813 48.6452C51.53 49.0749 51.7839 50.0319 51.3542 50.7807C51.0612 51.282 50.5404 51.5619 50 51.5619H50Z"
    fill="#FC5B3E"
  />
  <path
    d="M14.2571 72.2C13.7168 72.2 13.1894 71.9201 12.903 71.4188C12.4733 70.6701 12.7272 69.713 13.4759 69.2833L49.2235 48.6453C49.9722 48.2156 50.9292 48.4695 51.3589 49.2182C51.7886 49.9668 51.5347 50.9239 50.786 51.3536L15.0384 71.9917C14.791 72.1349 14.5176 72.2 14.2572 72.2H14.2571Z"
    fill="#FC5B3E"
  />
  <path
    d="M50 92.8381C49.1341 92.8381 48.4375 92.1415 48.4375 91.2756V49.9994C48.4375 49.1335 49.1341 48.4369 50 48.4369C50.8659 48.4369 51.5625 49.1335 51.5625 49.9994V91.2756C51.5625 92.1415 50.8659 92.8381 50 92.8381Z"
    fill="#FC5B3E"
  />
  <path
    d="M85.7429 72.2C85.4759 72.2 85.209 72.1349 84.9616 71.9917L49.214 51.3536C48.4653 50.9239 48.2114 49.9669 48.6411 49.2182C49.0708 48.4695 50.0278 48.2156 50.7765 48.6453L86.5241 69.2833C87.2728 69.713 87.5267 70.6701 87.0971 71.4188C86.8106 71.9201 86.2832 72.2 85.7429 72.2H85.7429Z"
    fill="#FC5B3E"
  />
  <path
    d="M50 51.5619C49.4596 51.5619 48.9323 51.2819 48.6458 50.7807C48.2161 50.032 48.47 49.0749 49.2187 48.6452L84.9664 28.0071C85.715 27.5774 86.6721 27.8313 87.1018 28.58C87.5315 29.3287 87.2776 30.2858 86.5289 30.7155L50.7813 51.3536C50.5339 51.4968 50.2669 51.5619 50 51.5619H50Z"
    fill="#FC5B3E"
  />
  <path
    d="M29.2643 54.7595C28.0208 54.7595 26.7838 54.2843 25.8398 53.3403C23.9517 51.4522 23.9517 48.3793 25.8398 46.4848C27.7278 44.5968 30.8007 44.5968 32.6952 46.4848C33.6132 47.4028 34.1145 48.6202 34.1145 49.9093C34.1145 51.2049 33.6132 52.4224 32.6952 53.3338C31.7447 54.2844 30.5012 54.7596 29.2643 54.7596V54.7595ZM29.2643 48.1905C28.8216 48.1905 28.3854 48.3597 28.0468 48.6918C27.3763 49.3624 27.3763 50.4561 28.0468 51.1268C28.7174 51.7974 29.8112 51.7974 30.4818 51.1268C30.8074 50.8013 30.9831 50.3716 30.9831 49.9093C30.9831 49.4471 30.8008 49.0174 30.4818 48.6919C30.1433 48.3599 29.7071 48.1906 29.2644 48.1906L29.2643 48.1905Z"
    fill="#FC5B3E"
  />
  <path
    d="M17.9691 52.1929C17.5329 52.1929 17.0967 52.0106 16.7907 51.659L14.3038 48.8073C13.7374 48.1563 13.8025 47.1667 14.4535 46.6003C15.1046 46.0339 16.0876 46.099 16.6605 46.7501L19.1474 49.6017C19.7138 50.2528 19.6488 51.2423 18.9977 51.8087C18.6982 52.0626 18.3336 52.1929 17.9691 52.1929V52.1929Z"
    fill="#FC5B3E"
  />
  <path
    d="M19.7072 43.6905C19.4402 43.6905 19.1733 43.6254 18.9259 43.4821L15.6447 41.5876C14.896 41.1579 14.6421 40.2009 15.0718 39.4522C15.5015 38.7035 16.4585 38.4496 17.2073 38.8793L20.4884 40.7738C21.2371 41.2035 21.491 42.1605 21.0613 42.9092C20.7749 43.4106 20.2475 43.6905 19.7072 43.6905H19.7072Z"
    fill="#FC5B3E"
  />
</svg>
